<svg width="4981" height="2300" viewBox="0 0 4981 2300" fill="none" xmlns="http://www.w3.org/2000/svg">
<path d="M2110.4 864.551H1974.75V1076.88H1866.9V460.954H2110.4C2234.26 460.954 2314.3 541.842 2314.3 662.331C2314.3 781.135 2233.42 864.551 2110.4 864.551ZM2089.34 557.008H1974.75V768.497H2087.65C2161.8 768.497 2201.4 728.895 2201.4 661.489C2201.4 594.082 2160.96 557.008 2089.34 557.008Z" fill="white"/>
<path d="M2651.05 658.961V754.173H2613.14C2538.99 754.173 2492.65 793.774 2492.65 874.662V1076.88H2389.86V661.489H2486.75L2492.65 722.155C2510.34 680.868 2549.94 653.063 2605.55 653.063C2619.88 653.063 2634.2 654.748 2651.05 658.961Z" fill="white"/>
<path d="M2682.21 867.922C2682.21 738.164 2775.73 648.85 2904.64 648.85C3033.56 648.85 3127.08 738.164 3127.08 867.922C3127.08 997.68 3033.56 1086.99 2904.64 1086.99C2775.73 1086.99 2682.21 997.68 2682.21 867.922ZM2785 867.922C2785 943.754 2833.87 995.152 2904.64 995.152C2975.42 995.152 3024.29 943.754 3024.29 867.922C3024.29 792.089 2975.42 740.691 2904.64 740.691C2833.87 740.691 2785 792.089 2785 867.922Z" fill="white"/>
<path d="M3379.6 1087.84C3259.11 1087.84 3184.12 999.365 3184.12 870.449C3184.12 740.691 3259.96 648.007 3385.5 648.007C3443.63 648.007 3495.03 672.442 3521.15 713.729V450H3623.1V1076.88H3528.73L3521.99 1012C3496.72 1060.03 3442.79 1087.84 3379.6 1087.84ZM3402.35 993.467C3473.97 993.467 3520.31 942.069 3520.31 867.079C3520.31 792.089 3473.97 739.849 3402.35 739.849C3330.73 739.849 3286.92 792.932 3286.92 867.079C3286.92 941.226 3330.73 993.467 3402.35 993.467Z" fill="white"/>
<path d="M4012.48 660.646H4115.28V1076.88H4020.07L4012.48 1021.27C3987.21 1060.87 3933.28 1087.84 3877.67 1087.84C3781.62 1087.84 3725.17 1022.96 3725.17 921.004V660.646H3827.96V884.773C3827.96 963.976 3859.14 995.994 3916.43 995.994C3981.31 995.994 4012.48 958.078 4012.48 878.875V660.646Z" fill="white"/>
<path d="M4188.78 867.922C4188.78 739.006 4273.88 648.007 4396.9 648.007C4510.64 648.007 4588.16 711.201 4599.11 811.469H4496.32C4484.52 764.284 4449.98 739.849 4401.11 739.849C4335.39 739.849 4291.58 789.561 4291.58 867.922C4291.58 946.282 4332.02 995.152 4397.74 995.152C4449.14 995.152 4485.37 969.874 4496.32 924.375H4599.95C4587.32 1021.27 4506.43 1087.84 4397.74 1087.84C4271.35 1087.84 4188.78 1000.21 4188.78 867.922Z" fill="white"/>
<path d="M4818.01 1076.88H4715.22V746.59H4635.18V660.646H4715.22V530.888H4818.01V660.646H4898.9V746.59H4818.01V1076.88Z" fill="white"/>
<path d="M1973.06 1839.89H1866.9V1223.96H1973.91L2262.91 1660.42V1223.96H2369.07V1839.89H2262.91L1973.06 1403.43V1839.89Z" fill="white"/>
<path d="M2465.81 1630.93C2465.81 1501.17 2559.33 1411.86 2688.24 1411.86C2817.15 1411.86 2910.68 1501.17 2910.68 1630.93C2910.68 1760.69 2817.15 1850 2688.24 1850C2559.33 1850 2465.81 1760.69 2465.81 1630.93ZM2568.6 1630.93C2568.6 1706.76 2617.47 1758.16 2688.24 1758.16C2759.02 1758.16 2807.89 1706.76 2807.89 1630.93C2807.89 1555.1 2759.02 1503.7 2688.24 1503.7C2617.47 1503.7 2568.6 1555.1 2568.6 1630.93Z" fill="white"/>
<path d="M3253.35 1421.97V1517.18H3215.44C3141.29 1517.18 3094.95 1556.78 3094.95 1637.67V1839.89H2992.16V1424.5H3089.05L3094.95 1485.16C3112.64 1443.87 3152.25 1416.07 3207.85 1416.07C3222.18 1416.07 3236.5 1417.75 3253.35 1421.97Z" fill="white"/>
<path d="M3480.94 1839.89H3378.14V1509.6H3298.1V1423.65H3378.14V1293.89H3480.94V1423.65H3561.82V1509.6H3480.94V1839.89Z" fill="white"/>
<path d="M3728.52 1839.89H3625.73V1213.01H3729.36V1477.58C3755.48 1437.13 3804.35 1411.01 3864.17 1411.01C3966.97 1411.01 4020.89 1475.89 4020.89 1583.74V1839.89H3918.1V1608.18C3918.1 1538.24 3883.55 1504.54 3831.31 1504.54C3766.43 1504.54 3728.52 1550.04 3728.52 1612.39V1839.89Z" fill="white"/>
<path d="M762.122 119.022L96.3125 784.832C257.048 945.568 522.58 941.699 688.071 776.209L811.225 653.055L925.234 767.064C1085.97 927.799 1351.51 923.928 1517 758.438L875.924 117.362C844.151 85.5886 794.839 86.3053 762.122 119.022Z" fill="#FBFBFB"/>
<path d="M754.577 769.446L88.7641 1435.26C249.5 1595.99 515.032 1592.12 680.524 1426.63L803.679 1303.48L919.559 1419.36C1080.29 1580.09 1345.83 1576.22 1511.33 1410.73L868.377 767.783C838.475 737.881 787.289 736.734 754.577 769.446Z" fill="url(#paint0_linear_381_825)"/>
<path d="M748.815 1421.87L83 2087.68C243.734 2248.42 509.266 2244.55 674.758 2079.06L797.914 1955.9L911.927 2069.91C1072.66 2230.65 1338.19 2226.78 1503.68 2061.29L862.607 1420.21C830.835 1388.44 779.605 1391.08 748.815 1421.87Z" fill="url(#paint1_linear_381_825)"/>
<defs>
<linearGradient id="paint0_linear_381_825" x1="1488.92" y1="98.8729" x2="709.442" y2="641.822" gradientUnits="userSpaceOnUse">
<stop offset="0.176" stop-color="white"/>
<stop offset="1" stop-color="#EBEBEB"/>
</linearGradient>
<linearGradient id="paint1_linear_381_825" x1="813.03" y1="1361.95" x2="813.59" y2="1998.54" gradientUnits="userSpaceOnUse">
<stop offset="0.176" stop-color="#DDDDDD"/>
<stop offset="1" stop-color="white"/>
</linearGradient>
</defs>
</svg>
